<svg xmlns="http://www.w3.org/2000/svg" width="318" height="318" fill="none" viewBox="0 0 318 318"><rect width="318" height="318" fill="#E2E2E2" fill-opacity=".35" rx="10"/><path fill="#707070" d="m102.964 213.143 2.057-4.037zm-3.071-3.071 4.037-2.057zm113.246 0-4.037-2.057zm-3.071 3.071-2.057-4.037zm0-113.246-2.057 4.037zm3.071 3.071-4.037 2.057zm-110.175-3.071 2.057 4.037zm-3.071 3.071 4.037 2.057zm-3.989 75.84a4.532 4.532 0 0 0 6.446 6.371zm28.41-22.296-3.223-3.186zm16.089.098 3.262-3.146zm23.451 24.313-3.261 3.146zm16.185 0-3.261-3.145zm6.506-6.745 3.262 3.146zm16.09-.098-3.223 3.185zm8.047 14.587a4.531 4.531 0 0 0 6.446-6.37zm-18.325-19.378 1.447 4.294zm4.407-.027-1.395 4.312zm-27.037 16.597-1.431 4.299zm4.44 0-1.432-4.299zm-43.982-34.165-1.394-4.311zm4.407.027-1.447 4.294zm49.138-22.643v-4.531a4.53 4.53 0 0 0-4.531 4.531zm.213 0h4.531a4.53 4.53 0 0 0-4.531-4.531zm0 .228v4.531a4.53 4.53 0 0 0 4.531-4.531zm-.213 0h-4.531a4.53 4.53 0 0 0 4.531 4.531zm-73.359-25.644h92.291V94.6h-92.291zm99.003 6.713v92.291h9.062v-92.291zm-6.712 99.003h-92.291v9.062h92.291zm-99.004-6.712v-92.291h-9.062v92.291zm6.713 6.712c-2.043 0-3.302-.004-4.247-.081-.892-.073-1.097-.188-1.103-.191l-4.114 8.075c1.497.762 3.027 1.03 4.479 1.149 1.399.114 3.091.11 4.985.11zm-15.775-6.712c0 1.893-.004 3.585.11 4.984.12 1.452.387 2.983 1.15 4.479l8.074-4.114c-.003-.006-.118-.211-.191-1.103-.077-.944-.081-2.204-.081-4.246zm10.425 6.44a2.5 2.5 0 0 1-1.091-1.091l-8.074 4.114a11.56 11.56 0 0 0 5.051 5.052zm104.353-6.44c0 2.042-.004 3.302-.081 4.246-.073.892-.188 1.097-.191 1.103l8.075 4.114c.762-1.496 1.03-3.027 1.149-4.479.114-1.399.11-3.091.11-4.984zm-6.712 15.774c1.893 0 3.585.004 4.984-.11 1.452-.119 2.982-.387 4.479-1.149l-4.114-8.075c-.006.003-.211.118-1.103.191-.944.077-2.204.081-4.246.081zm6.44-10.425c-.24.47-.621.852-1.091 1.091l4.114 8.075a11.57 11.57 0 0 0 5.052-5.052zm-6.44-104.353c2.042 0 3.302.004 4.246.081.892.073 1.097.188 1.103.191l4.114-8.074c-1.497-.763-3.027-1.03-4.479-1.15-1.399-.114-3.091-.11-4.984-.11zm15.774 6.713c0-1.893.004-3.586-.11-4.985-.119-1.452-.387-2.982-1.149-4.479l-8.075 4.114c.003.006.118.212.191 1.103.077.945.081 2.204.081 4.247zm-10.425-6.441a2.5 2.5 0 0 1 1.091 1.091l8.075-4.114a11.56 11.56 0 0 0-5.052-5.051zm-97.64-9.334c-1.894 0-3.586-.004-4.985.11-1.452.12-2.982.387-4.479 1.15l4.114 8.074c.006-.003.211-.118 1.103-.191.945-.077 2.204-.081 4.247-.081zm-6.713 15.775c0-2.043.004-3.302.081-4.247.073-.891.188-1.097.191-1.103l-8.074-4.114c-.763 1.497-1.03 3.027-1.15 4.479-.114 1.399-.11 3.092-.11 4.985zm-2.751-14.515a11.56 11.56 0 0 0-5.051 5.051l8.074 4.114a2.5 2.5 0 0 1 1.091-1.091zm1.443 89.319 25.187-25.482-6.446-6.371-25.187 25.482zm34.792-25.423 23.451 24.313 6.523-6.291-23.451-24.314zm46.159 24.313 6.506-6.745-6.523-6.292-6.506 6.746zm16.111-6.804 11.27 11.402 6.446-6.37-11.271-11.403zm-9.605.059c1.448-1.502 2.346-2.427 3.074-3.067.689-.606.919-.672.923-.674l-2.894-8.588c-1.62.546-2.9 1.477-4.013 2.455-1.074.944-2.27 2.19-3.613 3.582zm16.05-6.43c-1.36-1.376-2.571-2.606-3.656-3.537-1.125-.965-2.416-1.88-4.043-2.406l-2.789 8.623c.005.001.236.065.932.662.735.631 1.644 1.545 3.111 3.029zm-12.053 2.689a2.5 2.5 0 0 1 1.565-.009l2.789-8.623a11.56 11.56 0 0 0-7.248.044zm-33.211 10.486c1.358 1.409 2.567 2.667 3.651 3.619 1.123.987 2.416 1.925 4.052 2.47l2.862-8.598c-.003-.001-.235-.067-.933-.68-.737-.647-1.645-1.584-3.109-3.102zm16.185-6.291c-1.464 1.518-2.373 2.454-3.109 3.102-.698.613-.931.679-.934.68l2.863 8.598c1.636-.545 2.929-1.483 4.052-2.47 1.084-.952 2.292-2.21 3.651-3.619zm-8.482 12.38c2.37.789 4.932.789 7.302 0l-2.863-8.598c-.512.17-1.065.17-1.577 0zm-40.759-30.461c1.466-1.484 2.375-2.398 3.111-3.029.696-.598.927-.661.931-.663l-2.788-8.622c-1.627.526-2.918 1.441-4.043 2.406-1.085.93-2.296 2.161-3.657 3.537zm16.128-6.233c-1.344-1.392-2.54-2.638-3.614-3.582-1.112-.978-2.392-1.909-4.012-2.455l-2.894 8.588c.004.001.234.068.923.674.728.639 1.626 1.565 3.074 3.067zm-12.086 2.541a2.5 2.5 0 0 1 1.566.01l2.894-8.588a11.56 11.56 0 0 0-7.248-.044zm56.843-26.813a4.58 4.58 0 0 1-4.578 4.578v9.063c7.534 0 13.641-6.108 13.641-13.641zm-4.578 4.578a4.58 4.58 0 0 1-4.578-4.578h-9.062c0 7.533 6.107 13.641 13.64 13.641zm-4.578-4.578a4.58 4.58 0 0 1 4.578-4.578v-9.063c-7.533 0-13.64 6.107-13.64 13.641zm4.578-4.578a4.58 4.58 0 0 1 4.578 4.578h9.063c0-7.534-6.107-13.641-13.641-13.641zm-.114 8.995h.213v-9.062h-.213zm-4.318-4.531v.228h9.062v-.228zm4.531-4.304h-.213v9.063h.213zm4.319 4.532v-.228h-9.063v.228z" opacity=".35" style="mix-blend-mode:multiply"/></svg>